<svg xmlns="http://www.w3.org/2000/svg" style="display: none;">
	
	<symbol id="abc123" viewBox="0 0 20 20">
		
    </symbol>
	
	<symbol id="add-light" viewBox="0 0 20 20">
		<polygon points="18,10 11,10 11,3 10,3 10,10 3,10 3,11 10,11 10,18 11,18 11,11 18,11 "/>
    </symbol>

	<symbol id="bars-light" viewBox="0 0 20 20">
		<path d="M4,11v8H1v-8H4 M5,10H0v10h5V10L5,10z"/>
		<path d="M11,3v16H8V3H11 M12,2H7v18h5V2L12,2z"/>
		<path d="M18,7v12h-3V7H18 M19,6h-5v14h5V6L19,6z"/>
    </symbol>
	
	<symbol id="menu-light" viewBox="0 0 20 20">
		<rect y="1" width="20" height="1"/>
		<rect y="9" width="20" height="1"/>
		<rect y="17" width="20" height="1"/>
    </symbol>
	
	<symbol id="close-light" viewBox="0 0 20 20">
		<polygon points="18,2.707 17.293,2 10,9.293 2.707,2 2,2.707 9.293,10 2,17.293 2.707,18 10,10.707 17.293,18 18,17.293 10.707,10"/>
	</symbol>
	
	<symbol id="chevron-light" viewBox="0 0 20 20">
		<polygon points="6.354,2 5.646,2.707 12.939,10 5.646,17.293 6.354,18 14.354,10 "/>
    </symbol>
	
	<symbol id="chevron-circle-light" viewBox="0 0 20 20">
		<path d="M10,20C4.486,20,0,15.514,0,10S4.486,0,10,0s10,4.486,10,10S15.514,20,10,20z M10,1c-4.962,0-9,4.038-9,9s4.038,9,9,9 s9-4.038,9-9S14.962,1,10,1z"/>
		<polygon points="8.354,5 7.646,5.707 11.939,10 7.646,14.293 8.354,15 13.354,10 "/>
    </symbol>
	
	<symbol id="directions-light" viewBox="0 0 20 20">
		<path d="M19.562,8.941l-8.503-8.503c-0.584-0.584-1.533-0.584-2.117,0L0.438,8.941c-0.584,0.584-0.584,1.533,0,2.117l8.503,8.503 C9.233,19.854,9.616,20,10,20s0.767-0.146,1.059-0.438l8.503-8.503C20.146,10.475,20.146,9.525,19.562,8.941z M18.856,10.353 l-8.503,8.503c-0.195,0.195-0.511,0.195-0.706,0l-8.503-8.503c-0.194-0.194-0.194-0.511,0-0.706l8.503-8.503 C9.745,1.046,9.872,0.998,10,0.998s0.255,0.048,0.353,0.146l8.503,8.503C19.051,9.842,19.051,10.158,18.856,10.353z"/>
		<path d="M11.144,7.711l1.79,1.79H9.002c-0.826,0-1.497,0.672-1.497,1.497v1.996h0.998v-1.996c0-0.275,0.224-0.499,0.499-0.499h3.932 l-1.79,1.79l0.706,0.706L14.845,10L11.85,7.005L11.144,7.711z"/>
    </symbol>
	
	<symbol id="exclamation-circle-light" viewBox="0 0 20 20">
		<path d="M10,20.008c-5.514,0-10-4.486-10-10s4.486-10,10-10s10,4.486,10,10S15.514,20.008,10,20.008z M10,1.008 c-4.962,0-9,4.038-9,9s4.038,9,9,9s9-4.038,9-9S14.962,1.008,10,1.008z"/>
		<circle cx="10" cy="15.008" r="1"/>
		<path d="M10,13.419c-0.365,0-0.668-0.251-0.737-0.609L8.03,6.319C7.931,5.735,8.091,5.151,8.467,4.707 c0.376-0.444,0.925-0.699,1.507-0.699c0.634,0,1.183,0.254,1.559,0.698s0.536,1.028,0.44,1.602l-1.236,6.501 C10.668,13.168,10.365,13.419,10,13.419z M9.754,12.622L9.754,12.622L9.754,12.622z M10.026,5.008c-0.34,0-0.61,0.125-0.796,0.345 c-0.185,0.219-0.264,0.507-0.216,0.79L10,11.33l0.988-5.198c0.046-0.272-0.034-0.561-0.219-0.78 C10.583,5.133,10.313,5.008,10.026,5.008z"/>
    </symbol>
	
	<symbol id="facebook" viewBox="0 0 20 20">
		<path d="M14.654,11.25l0.555-3.62h-3.473V5.282c0-0.99,0.485-1.955,2.041-1.955h1.579V0.245c0,0-1.433-0.245-2.803-0.245 c-2.86,0-4.73,1.734-4.73,4.872V7.63H4.644v3.62h3.179V20h3.913v-8.75H14.654z"/>
	</symbol>
	
	<symbol id="globe-light" viewBox="0 0 20 20">
		<path d="M10,0C4.486,0,0,4.486,0,10s4.486,10,10,10s10-4.486,10-10S15.514,0,10,0z M10,19c-1.094,0-2.267-1.621-2.94-4.247 C7.993,14.589,8.982,14.5,10,14.5c1.018,0,2.007,0.089,2.94,0.253C12.267,17.379,11.094,19,10,19z M10,13.5 c-1.091,0-2.154,0.097-3.158,0.278c-0.188-0.988-0.304-2.09-0.331-3.278h6.978c-0.027,1.188-0.143,2.29-0.331,3.278 C12.154,13.598,11.091,13.5,10,13.5z M10,1c1.094,0,2.267,1.621,2.94,4.247C12.007,5.411,11.018,5.5,10,5.5S7.993,5.411,7.06,5.247 C7.733,2.621,8.906,1,10,1z M10,6.5c1.091,0,2.154-0.097,3.158-0.278c0.188,0.988,0.304,2.09,0.331,3.278H6.511 c0.027-1.188,0.143-2.29,0.331-3.278C7.846,6.402,8.909,6.5,10,6.5z M5.511,9.5H1.025c0.097-1.759,0.698-3.383,1.666-4.732 c0.905,0.53,1.979,0.953,3.169,1.246C5.656,7.085,5.537,8.261,5.511,9.5z M5.511,10.5c0.026,1.239,0.145,2.415,0.35,3.487 c-1.19,0.293-2.264,0.715-3.169,1.246c-0.969-1.349-1.569-2.973-1.666-4.732H5.511z M14.489,10.5h4.486 c-0.097,1.76-0.698,3.384-1.667,4.733c-0.905-0.531-1.979-0.953-3.169-1.246C14.344,12.915,14.463,11.739,14.489,10.5z M14.489,9.5 c-0.026-1.239-0.145-2.415-0.35-3.487c1.19-0.293,2.264-0.715,3.169-1.246c0.969,1.349,1.569,2.973,1.667,4.732H14.489z M16.673,3.983c-0.792,0.445-1.721,0.804-2.751,1.058c-0.396-1.571-0.977-2.864-1.683-3.748C13.975,1.741,15.507,2.691,16.673,3.983 z M7.761,1.293C7.055,2.177,6.474,3.47,6.077,5.041c-1.03-0.255-1.959-0.613-2.751-1.058C4.493,2.691,6.025,1.741,7.761,1.293z M3.327,16.017c0.791-0.445,1.721-0.804,2.751-1.058c0.396,1.571,0.977,2.864,1.683,3.748C6.025,18.259,4.493,17.31,3.327,16.017z M12.239,18.707c0.706-0.884,1.287-2.177,1.683-3.748c1.03,0.255,1.959,0.613,2.751,1.058 C15.507,17.309,13.975,18.259,12.239,18.707z"/>
	</symbol>
	
	<symbol id="info-light" viewBox="0 0 20 20">
		<path d="M10,20C4.486,20,0,15.514,0,10S4.486,0,10,0s10,4.486,10,10S15.514,20,10,20z M10,1c-4.962,0-9,4.038-9,9s4.038,9,9,9 s9-4.038,9-9S14.962,1,10,1z"/>
		<path d="M12,15h-1c-0.827,0-1.5-0.673-1.5-1.5V10H9V9h1.5v4.5c0,0.275,0.224,0.5,0.5,0.5h1V15z"/>
		<circle cx="10" cy="6" r="1"/>
	</symbol>
	
	<symbol id="instagram" viewBox="0 0 20 20">
		<path d="M10.002,4.873c-2.838,0-5.127,2.289-5.127,5.127s2.289,5.127,5.127,5.127s5.127-2.289,5.127-5.127S12.84,4.873,10.002,4.873 z M10.002,13.333c-1.834,0-3.333-1.495-3.333-3.333s1.495-3.333,3.333-3.333S13.335,8.162,13.335,10S11.836,13.333,10.002,13.333 L10.002,13.333z M16.534,4.664c0,0.665-0.535,1.196-1.196,1.196c-0.665,0-1.196-0.535-1.196-1.196s0.535-1.196,1.196-1.196 S16.534,4.003,16.534,4.664z M19.93,5.877c-0.076-1.602-0.442-3.021-1.615-4.19c-1.169-1.169-2.588-1.535-4.19-1.615 c-1.651-0.094-6.599-0.094-8.25,0c-1.597,0.076-3.016,0.442-4.19,1.611S0.151,4.271,0.07,5.873c-0.094,1.651-0.094,6.599,0,8.25 c0.076,1.602,0.442,3.021,1.615,4.19s2.588,1.535,4.19,1.615c1.651,0.094,6.599,0.094,8.25,0c1.602-0.076,3.021-0.442,4.19-1.615 c1.169-1.169,1.535-2.588,1.615-4.19C20.023,12.472,20.023,7.528,19.93,5.877L19.93,5.877z M17.797,15.894 c-0.348,0.875-1.022,1.548-1.901,1.901c-1.316,0.522-4.439,0.402-5.894,0.402s-4.582,0.116-5.894-0.402 c-0.875-0.348-1.548-1.022-1.901-1.901C1.685,14.578,1.806,11.455,1.806,10S1.69,5.418,2.207,4.106 c0.348-0.875,1.022-1.548,1.901-1.901c1.316-0.522,4.439-0.402,5.894-0.402s4.582-0.116,5.894,0.402 c0.875,0.348,1.548,1.022,1.901,1.901c0.522,1.316,0.402,4.439,0.402,5.894S18.319,14.582,17.797,15.894z"/>
	</symbol>
	
	<symbol id="phone-light" viewBox="0 0 20 20">
		<path d="M19.317,13.336l-3.851-2.567c-0.606-0.404-1.417-0.323-1.929,0.192l-1.393,1.397c-0.185,0.187-0.48,0.204-0.699,0.044 c-0.8-0.582-1.483-1.158-2.086-1.762c-0.604-0.603-1.18-1.286-1.761-2.086c-0.16-0.22-0.142-0.514,0.044-0.699l1.397-1.392 C9.553,5.95,9.633,5.139,9.23,4.534L6.664,0.683c-0.393-0.59-1.127-0.832-1.787-0.591C4.155,0.357,3.115,0.803,2.259,1.43 C1.742,1.81,1.215,2.282,0.694,2.835c-0.708,0.749-0.895,1.867-0.466,2.783c1.408,3.01,3.383,5.798,5.87,8.285 c2.487,2.487,5.275,4.461,8.285,5.87C14.71,19.925,15.064,20,15.417,20c0.634,0,1.267-0.24,1.748-0.694 c0.553-0.522,1.026-1.048,1.405-1.566c0.627-0.856,1.073-1.896,1.337-2.617C20.149,14.464,19.906,13.729,19.317,13.336z M14.911,11.602l3.851,2.567c0.204,0.136,0.289,0.387,0.206,0.611c-0.06,0.164-0.13,0.346-0.21,0.539l-4.93-3.232l0.417-0.418 C14.422,11.489,14.702,11.462,14.911,11.602z M5.221,1.032c0.057-0.021,0.116-0.031,0.174-0.031c0.17,0,0.335,0.085,0.436,0.237 l2.567,3.851C8.538,5.298,8.51,5.578,8.332,5.755L7.914,6.172l-3.232-4.93C4.875,1.162,5.057,1.092,5.221,1.032z M16.478,18.579 c-0.454,0.427-1.125,0.542-1.672,0.288c-2.905-1.359-5.597-3.267-8.001-5.672c-2.404-2.405-4.312-5.097-5.672-8.001 c-0.256-0.547-0.14-1.219,0.288-1.672C1.901,3.012,2.383,2.58,2.85,2.237c0.289-0.212,0.604-0.394,0.921-0.561l3.42,5.216 L6.935,7.147C6.399,7.682,6.337,8.521,6.788,9.143c0.613,0.843,1.222,1.565,1.864,2.205c0.641,0.641,1.362,1.251,2.205,1.864 c0.623,0.451,1.461,0.388,1.995-0.147l0.255-0.256l5.216,3.42c-0.167,0.316-0.349,0.632-0.561,0.92 C17.42,17.617,16.988,18.099,16.478,18.579z"/>
    </symbol>
	
	<symbol id="search-light" viewBox="0 0 20 20">
		<path d="M20,19.293l-6.862-6.862C14.293,11.111,15,9.388,15,7.5C15,3.364,11.636,0,7.5,0S0,3.364,0,7.5S3.364,15,7.5,15 c1.888,0,3.611-0.707,4.931-1.862L19.293,20L20,19.293z M7.5,14C3.916,14,1,11.084,1,7.5S3.916,1,7.5,1S14,3.916,14,7.5 S11.084,14,7.5,14z"/>
    </symbol>
	
	<symbol id="success-light" viewBox="0 0 20 20">
		<path d="M10,20C4.486,20,0,15.514,0,10S4.486,0,10,0s10,4.486,10,10S15.514,20,10,20z M10,1c-4.962,0-9,4.038-9,9s4.038,9,9,9 s9-4.038,9-9S14.962,1,10,1z"/>
		<polygon points="8.064,14.173 4.679,10.787 5.386,10.08 8.064,12.759 14.743,6.08 15.45,6.787"/>
    </symbol>
	
	<symbol id="twitter" viewBox="0 0 20 20">
		<path d="M17.944,5.926c0.013,0.178,0.013,0.355,0.013,0.533c0,5.419-4.124,11.662-11.662,11.662c-2.322,0-4.48-0.673-6.294-1.84 c0.33,0.038,0.647,0.051,0.99,0.051c1.916,0,3.68-0.647,5.089-1.751c-1.802-0.038-3.312-1.218-3.833-2.843 c0.254,0.038,0.508,0.063,0.774,0.063c0.368,0,0.736-0.051,1.079-0.14c-1.878-0.381-3.287-2.03-3.287-4.023V7.589 c0.546,0.305,1.18,0.495,1.853,0.52C1.561,7.373,0.838,6.117,0.838,4.695c0-0.761,0.203-1.459,0.558-2.069 c2.018,2.487,5.051,4.112,8.452,4.289C9.784,6.612,9.746,6.294,9.746,5.977c0-2.259,1.827-4.099,4.099-4.099 c1.18,0,2.246,0.495,2.995,1.294c0.926-0.178,1.815-0.52,2.602-0.99c-0.305,0.952-0.952,1.751-1.802,2.259 c0.825-0.089,1.624-0.317,2.36-0.634C19.442,4.619,18.744,5.343,17.944,5.926L17.944,5.926z"/>
	</symbol>
	
	<symbol id="linkedin" viewBox="0 0 20 20">
		<path d="M4.477,20H0.33V6.647h4.146V20z M2.401,4.825C1.075,4.825,0,3.727,0,2.401C0,1.075,1.075,0,2.402,0 c1.326,0,2.401,1.075,2.401,2.401C4.803,3.727,3.727,4.825,2.401,4.825z M19.996,20h-4.137v-6.5c0-1.549-0.031-3.536-2.156-3.536 c-2.156,0-2.486,1.683-2.486,3.424V20H7.074V6.647h3.977v1.822h0.058c0.554-1.049,1.906-2.156,3.923-2.156 c4.196,0,4.968,2.764,4.968,6.353V20H19.996z"/>
	</symbol>

</svg>